<svg id="visual" viewBox="0 0 900 600" width="900" height="600" xmlns="http://www.w3.org/2000/svg" xmlns:xlink="http://www.w3.org/1999/xlink" version="1.1"><g stroke-width="1" stroke-linejoin="bevel"><path d="M486 287L534 205L401 217Z" fill="#297ea6" stroke="#297ea6"></path><path d="M534 205L434 124L401 217Z" fill="#081a28" stroke="#081a28"></path><path d="M534 205L500 105L434 124Z" fill="#081a28" stroke="#081a28"></path><path d="M323 188L368 291L401 217Z" fill="#15384f" stroke="#15384f"></path><path d="M401 217L368 291L486 287Z" fill="#246688" stroke="#246688"></path><path d="M603 325L586 171L534 205Z" fill="#081a28" stroke="#081a28"></path><path d="M534 205L586 171L500 105Z" fill="#0c2435" stroke="#0c2435"></path><path d="M434 124L323 188L401 217Z" fill="#0c2435" stroke="#0c2435"></path><path d="M312 299L379 363L368 291Z" fill="#0c2435" stroke="#0c2435"></path><path d="M368 291L379 363L486 287Z" fill="#277297" stroke="#277297"></path><path d="M526 396L603 325L486 287Z" fill="#1d4e6b" stroke="#1d4e6b"></path><path d="M486 287L603 325L534 205Z" fill="#081a28" stroke="#081a28"></path><path d="M323 188L312 299L368 291Z" fill="#1d4e6b" stroke="#1d4e6b"></path><path d="M379 363L526 396L486 287Z" fill="#246688" stroke="#246688"></path><path d="M434 124L317 114L323 188Z" fill="#205a7a" stroke="#205a7a"></path><path d="M323 188L227 292L312 299Z" fill="#297ea6" stroke="#297ea6"></path><path d="M360 0L317 114L434 124Z" fill="#00101c" stroke="#00101c"></path><path d="M526 396L606 362L603 325Z" fill="#112e42" stroke="#112e42"></path><path d="M602 0L471 0L500 105Z" fill="#00101c" stroke="#00101c"></path><path d="M500 105L471 0L434 124Z" fill="#0c2435" stroke="#0c2435"></path><path d="M718 171L638 64L586 171Z" fill="#00101c" stroke="#00101c"></path><path d="M586 171L638 64L500 105Z" fill="#112e42" stroke="#112e42"></path><path d="M718 171L586 171L728 266Z" fill="#0c2435" stroke="#0c2435"></path><path d="M471 0L360 0L434 124Z" fill="#081a28" stroke="#081a28"></path><path d="M210 166L227 292L323 188Z" fill="#081a28" stroke="#081a28"></path><path d="M312 299L274 410L379 363Z" fill="#277297" stroke="#277297"></path><path d="M210 166L323 188L317 114Z" fill="#112e42" stroke="#112e42"></path><path d="M728 266L586 171L603 325Z" fill="#081a28" stroke="#081a28"></path><path d="M702 0L602 0L638 64Z" fill="#1d4e6b" stroke="#1d4e6b"></path><path d="M638 64L602 0L500 105Z" fill="#112e42" stroke="#112e42"></path><path d="M578 497L688 363L606 362Z" fill="#277297" stroke="#277297"></path><path d="M606 362L688 363L603 325Z" fill="#00101c" stroke="#00101c"></path><path d="M360 0L327 0L317 114Z" fill="#15384f" stroke="#15384f"></path><path d="M688 363L728 266L603 325Z" fill="#246688" stroke="#246688"></path><path d="M178 68L210 166L317 114Z" fill="#1d4e6b" stroke="#1d4e6b"></path><path d="M227 292L274 410L312 299Z" fill="#297ea6" stroke="#297ea6"></path><path d="M490 520L578 497L526 396Z" fill="#246688" stroke="#246688"></path><path d="M490 520L526 396L379 363Z" fill="#112e42" stroke="#112e42"></path><path d="M526 396L578 497L606 362Z" fill="#1d4e6b" stroke="#1d4e6b"></path><path d="M387 528L490 520L379 363Z" fill="#297ea6" stroke="#297ea6"></path><path d="M718 171L732 78L638 64Z" fill="#297ea6" stroke="#297ea6"></path><path d="M780 116L732 78L718 171Z" fill="#297ea6" stroke="#297ea6"></path><path d="M227 292L233 426L274 410Z" fill="#112e42" stroke="#112e42"></path><path d="M274 410L291 482L379 363Z" fill="#246688" stroke="#246688"></path><path d="M82 307L233 426L227 292Z" fill="#081a28" stroke="#081a28"></path><path d="M233 426L291 482L274 410Z" fill="#277297" stroke="#277297"></path><path d="M291 482L387 528L379 363Z" fill="#246688" stroke="#246688"></path><path d="M732 78L702 0L638 64Z" fill="#246688" stroke="#246688"></path><path d="M211 0L178 68L317 114Z" fill="#081a28" stroke="#081a28"></path><path d="M210 166L98 227L227 292Z" fill="#081a28" stroke="#081a28"></path><path d="M829 160L780 116L718 171Z" fill="#00101c" stroke="#00101c"></path><path d="M732 78L832 0L702 0Z" fill="#246688" stroke="#246688"></path><path d="M327 0L211 0L317 114Z" fill="#246688" stroke="#246688"></path><path d="M787 412L811 267L728 266Z" fill="#112e42" stroke="#112e42"></path><path d="M728 266L811 267L718 171Z" fill="#277297" stroke="#277297"></path><path d="M787 412L728 266L688 363Z" fill="#277297" stroke="#277297"></path><path d="M811 267L829 160L718 171Z" fill="#246688" stroke="#246688"></path><path d="M780 116L832 0L732 78Z" fill="#19435d" stroke="#19435d"></path><path d="M690 600L738 469L578 497Z" fill="#081a28" stroke="#081a28"></path><path d="M578 497L738 469L688 363Z" fill="#246688" stroke="#246688"></path><path d="M91 77L210 166L178 68Z" fill="#0c2435" stroke="#0c2435"></path><path d="M91 77L98 227L210 166Z" fill="#205a7a" stroke="#205a7a"></path><path d="M738 469L787 412L688 363Z" fill="#112e42" stroke="#112e42"></path><path d="M811 267L900 205L829 160Z" fill="#19435d" stroke="#19435d"></path><path d="M391 600L496 600L490 520Z" fill="#112e42" stroke="#112e42"></path><path d="M490 520L496 600L578 497Z" fill="#246688" stroke="#246688"></path><path d="M391 600L490 520L387 528Z" fill="#0c2435" stroke="#0c2435"></path><path d="M339 600L387 528L291 482Z" fill="#1d4e6b" stroke="#1d4e6b"></path><path d="M339 600L391 600L387 528Z" fill="#1d4e6b" stroke="#1d4e6b"></path><path d="M98 227L82 307L227 292Z" fill="#081a28" stroke="#081a28"></path><path d="M199 600L339 600L291 482Z" fill="#19435d" stroke="#19435d"></path><path d="M171 530L291 482L233 426Z" fill="#1d4e6b" stroke="#1d4e6b"></path><path d="M496 600L606 600L578 497Z" fill="#19435d" stroke="#19435d"></path><path d="M85 0L91 77L178 68Z" fill="#081a28" stroke="#081a28"></path><path d="M98 227L0 294L82 307Z" fill="#112e42" stroke="#112e42"></path><path d="M690 600L782 491L738 469Z" fill="#15384f" stroke="#15384f"></path><path d="M738 469L782 491L787 412Z" fill="#15384f" stroke="#15384f"></path><path d="M900 288L900 205L811 267Z" fill="#205a7a" stroke="#205a7a"></path><path d="M900 77L832 0L780 116Z" fill="#297ea6" stroke="#297ea6"></path><path d="M131 534L171 530L233 426Z" fill="#1d4e6b" stroke="#1d4e6b"></path><path d="M900 288L811 267L900 403Z" fill="#081a28" stroke="#081a28"></path><path d="M829 160L900 77L780 116Z" fill="#19435d" stroke="#19435d"></path><path d="M0 294L60 369L82 307Z" fill="#112e42" stroke="#112e42"></path><path d="M82 307L60 369L233 426Z" fill="#277297" stroke="#277297"></path><path d="M900 403L811 267L787 412Z" fill="#205a7a" stroke="#205a7a"></path><path d="M606 600L690 600L578 497Z" fill="#112e42" stroke="#112e42"></path><path d="M211 0L85 0L178 68Z" fill="#0c2435" stroke="#0c2435"></path><path d="M0 127L0 203L98 227Z" fill="#081a28" stroke="#081a28"></path><path d="M900 205L900 77L829 160Z" fill="#112e42" stroke="#112e42"></path><path d="M60 369L131 534L233 426Z" fill="#1d4e6b" stroke="#1d4e6b"></path><path d="M171 530L199 600L291 482Z" fill="#112e42" stroke="#112e42"></path><path d="M118 600L199 600L171 530Z" fill="#297ea6" stroke="#297ea6"></path><path d="M900 491L787 412L782 491Z" fill="#205a7a" stroke="#205a7a"></path><path d="M900 491L900 403L787 412Z" fill="#00101c" stroke="#00101c"></path><path d="M0 127L98 227L91 77Z" fill="#112e42" stroke="#112e42"></path><path d="M0 203L0 294L98 227Z" fill="#19435d" stroke="#19435d"></path><path d="M60 369L0 513L131 534Z" fill="#246688" stroke="#246688"></path><path d="M0 0L0 127L91 77Z" fill="#00101c" stroke="#00101c"></path><path d="M900 77L900 0L832 0Z" fill="#112e42" stroke="#112e42"></path><path d="M0 294L0 371L60 369Z" fill="#246688" stroke="#246688"></path><path d="M811 600L900 491L782 491Z" fill="#15384f" stroke="#15384f"></path><path d="M690 600L811 600L782 491Z" fill="#00101c" stroke="#00101c"></path><path d="M0 513L118 600L131 534Z" fill="#0c2435" stroke="#0c2435"></path><path d="M131 534L118 600L171 530Z" fill="#15384f" stroke="#15384f"></path><path d="M85 0L0 0L91 77Z" fill="#277297" stroke="#277297"></path><path d="M0 371L0 513L60 369Z" fill="#297ea6" stroke="#297ea6"></path><path d="M811 600L900 600L900 491Z" fill="#112e42" stroke="#112e42"></path><path d="M0 513L0 600L118 600Z" fill="#0c2435" stroke="#0c2435"></path></g></svg>